# xmcd CD database file generated by Grip 2.9
# 
# Track frame offsets:
#       150
#       14132
#       30437
#       46510
#       56665
#       67112
#       78342
#       92327
#       107530
#       121317
#       138487
#       150630
#       164290
#       177790
#       189285
#       201992
#       214590
#       230200
#       242725
#       255922
#       268167
#       284367
#       301327
#       312067
#       323882
# 
# Disc length: 4477 seconds
# 
# Revision: 3
# Processed by: cddbd v1.4b41PL1 Copyright (c) Steve Scherf et al.
# Submitted via: Grip 2.9
# 
DISCID=54117b19
DTITLE=Otis Rush - The Cobra Sessions 1956-1958
DYEAR=1900
DGENRE=
TTITLE0=I Can't Quit You, Baby
TTITLE1=I Can't Quit You, Baby (Alt. Take)
TTITLE2=I Can't Quit You, Baby (Alt. Take) (2)
TTITLE3=Sit Down Baby
TTITLE4=Sit Down Baby (Alt. Take)
TTITLE5=Violent Love
TTITLE6=My Love Will Never Die
TTITLE7=My Love Will Never Die (Alt. Take)
TTITLE8=Groaning The Blues
TTITLE9=Groaning The Blues (Alt. Take)
TTITLE10=Groaning The Blues (Alt. Take) (2)
TTITLE11=If You Were Mine
TTITLE12=Love That Woman
TTITLE13=Jump Sister Bessie
TTITLE14=Three Times A Fool
TTITLE15=She's A Good 'Un
TTITLE16=She's A Good 'Un (Alt. Take)
TTITLE17=It Takes Time
TTITLE18=Checking On My Baby
TTITLE19=Double Trouble
TTITLE20=Double Trouble (Alt. Take)
TTITLE21=Double Trouble (Alt. Take) (2)
TTITLE22=Keep On Loving Me Baby
TTITLE23=All Your Love
TTITLE24=My Baby Is A Good 'Un
EXTD=
EXTT0=
EXTT1=
EXTT2=
EXTT3=
EXTT4=
EXTT5=
EXTT6=
EXTT7=
EXTT8=
EXTT9=
EXTT10=
EXTT11=
EXTT12=
EXTT13=
EXTT14=
EXTT15=
EXTT16=
EXTT17=
EXTT18=
EXTT19=
EXTT20=
EXTT21=
EXTT22=
EXTT23=
EXTT24=
PLAYORDER=
